Patient4_TMGait_0pt4_02_right_39_EMG.mot
version=1
nRows=40
nColumns=33
inDegrees=no
endheader
time	1LAddLong	2LGlutMax	3LGlutMed	4LIliopsoas	5LSemiMemb	6LBicFemLong	7LRecFem	8LVastMed	9LVastLat	10LGasMed	11LTibAnt	12lTibPost	13LPeroneusLong	14LSol	15LExtDigLong	16LFlexDigLong	17RAddLong	18RGlutMax	19RGlutMed	20RIliopsoas	21RSemiMemb	22RBicFemLong	23RRecFem	24RVastMed	25RVastLat	26RGasMed	27RTibAnt	28RTibPost	29RPeroneusLong	30RSol	31RExtDigLong	32RFlexDigLong
52.37	0.009766	-0.011749	0.068207	0.005951	0.031891	-0.063629	-0.041046	0.018921	0.084534	-0.014496	0.025482	-0.00061	0.052948	-0.018616	0.053101	0.002899	0.001068	0.12253	-0.21347	0.020752	-0.14526	-0.22217	-0.076447	0.028687	0.049591	0.007629	-0.044861	-0.001526	-0.19745	0.11856	-0.003815	-0.009766
52.371	0.027618	-0.010681	0.050812	0.006104	0.027161	-0.018616	-0.042267	0.002747	0.11276	-0.013733	0.11505	0.001373	0.037079	0.015717	0.072784	0.001373	-0.010376	0.18555	0.079498	0.055695	-0.13473	-0.31891	-0.04837	0.022736	0.043945	-0.010986	0.047302	-0.005951	0.35309	0.18692	-0.005493	-0.011902
52.372	0.00885	0.017548	0.020752	-0.016327	0.050354	-0.006104	-0.051117	-0.005798	0.10895	0.019836	0.02243	0.003204	0.046692	0.007477	0.072937	-0.010529	0.026093	0.053558	-0.028534	0.063934	0.049438	-0.33905	-0.10696	0.013428	0.036774	-0.002136	0.001373	-0.005035	0.6842	0.12833	-0.001984	-0.01236
52.373	0.01236	0.039368	-0.011292	-0.015717	0.030975	0.031586	-0.036926	-0.009003	0.064545	0.044403	0.005493	0.001221	0.023499	0.016479	0.078583	-0.008392	0.009308	0.039978	0.45456	0.052795	-0.089264	-0.16449	-0.12314	0.091095	0.037231	-0.005493	0.001526	-0.004272	0.46127	0.1088	0.000458	-0.02533
52.374	-0.075989	0.02655	0.002289	0.003052	-0.053864	0.031586	0.033569	-0.012207	-0.039673	0.066681	0.010681	-0.002747	0.036316	-0.033112	0.098114	-0.00061	-0.02655	0.13092	0.33234	-0.005798	0.010834	-0.242	-0.085297	0.040588	0.037231	-0.00061	0.006104	-0.003815	-0.17059	0.10101	-0.001526	-0.013885
52.375	-0.041809	0.047913	0.001373	0.001984	-0.12695	0.012665	0.11383	-0.006409	-0.16007	0.080109	0.014648	-0.007477	0.025787	0.016174	0.087433	-0.009155	-0.00061	0.15182	0.061798	-0.028381	0.14481	-0.34683	0.005035	-0.02655	-0.005798	0.002289	-0.034485	-0.007019	-0.19379	0.17227	-0.007324	-0.011292
52.376	-0.003662	0.012817	-0.036621	0.010834	-0.092468	-0.051117	0.089111	0.00473	-0.18753	0.093079	0.025635	0.002594	0.024719	0.056	0.070801	-0.01297	-0.009918	0.065308	0.39444	-0.032959	-0.003967	-0.29434	0.004425	-0.037537	0.014954	0.002594	-0.023499	-0.005798	0.13184	0.22736	-0.00351	-0.008698
52.377	0.059662	0.007477	-0.057526	0.023651	0.013428	-0.057068	0.008698	0.001068	-0.09491	-0.032043	0.024567	-0.003815	0.016632	0.063934	0.0383	-0.009155	0.011139	0.094147	-0.34042	-0.00473	-0.12024	-0.20065	-0.016022	0.000458	0.03479	-0.002136	0.030518	-0.010529	-0.34958	-0.002594	-0.003967	-0.013428
52.378	0.009308	0.005951	-0.013123	-0.000763	0.033264	-0.12405	-0.004578	0.001221	-0.040741	-0.13763	0.023651	0.000458	-0.008087	0.052643	0.03952	-0.007324	-0.006714	0.040131	-0.14404	0.016174	-0.022583	-0.13184	-0.0177	0.067749	0.046387	0.003204	0.068359	-0.005798	-0.33814	-0.10178	-0.000916	-0.012665
52.379	-0.00412	-0.03067	0.043335	0.003815	0.14297	-0.059052	-0.02243	-0.000305	-0.012665	-0.072784	0.022583	-0.00473	-0.011139	0.007935	0.058746	-0.000458	-0.042725	-0.011139	0.44144	0.10468	0.031891	0.12268	0.02533	0.070343	0.051727	0.000763	0.092468	-0.006866	-0.77606	-0.12817	-0.000305	-0.00824
52.38	0.017548	-0.084076	0.009308	0.004425	0.22293	0.04303	-0.083466	-0.008392	0.064545	-0.001831	0.013885	-0.007782	-0.016632	-0.032959	0.062256	-0.009155	-0.055542	0.0354	0.24063	0.049591	0.15717	0.58929	0.032959	0.0737	0.045929	0.01297	0.085754	-0.007782	-0.50827	-0.10239	-0.001068	-0.003357
52.381	0.016022	-0.10147	0.051575	-0.001068	0.14313	0.11459	-0.056305	-0.014954	0.11154	0.00473	0.018005	-0.002441	-0.017853	-0.04303	0.071869	-0.001678	-0.014038	0.082092	-0.2269	0.032806	0.30014	0.45639	0.048676	0.019073	0.047302	0.028381	0.010681	-0.01236	0.076904	-0.082703	-0.002441	-0.001221
52.382	0.006409	-0.02243	0.11353	0.011902	0.045776	0.14465	0.051575	-0.010986	0.088501	0.024719	0.014038	-0.013885	-0.023804	-0.032349	0.053406	-0.001373	0.026093	0.084991	-0.44632	-0.067139	0.14465	0.25787	0.077209	-0.034027	0.016174	-0.021973	0.000305	-0.013123	0.30106	-0.10361	-0.003662	-0.005493
52.383	0.00412	0.007172	0.078735	0.014343	-0.006409	0.1207	0.011139	0.002594	-0.02594	0.027771	0.006561	-0.006256	-0.021973	-0.024261	0.032806	-0.006409	0.014648	0.06073	0.19562	-0.20798	-0.1384	0.12634	0.081329	-0.040741	0.018768	-0.11749	0.038605	-0.021057	-0.15823	-0.17303	-0.001068	-0.001831
52.384	-0.016174	0.007172	0.053711	0.011292	0.027313	0.10574	0.024719	0.001373	-0.093689	0.019989	0.008698	-0.00473	-0.033722	0.00473	0.015259	-0.001373	-0.034027	0.017395	0.25162	-0.1355	0.034485	0.066986	0.052185	-0.037689	0.022736	-0.1918	0.030518	-0.033722	-0.19409	0.11307	-0.007172	-0.001221
52.385	-0.022736	0.001221	0.016632	-0.007935	0.022278	0.063477	0	0.005188	-0.050964	0.009918	0.011902	0	-0.028534	-0.02121	0.015869	0.00061	0.00824	0.059967	-0.030823	-0.081635	0.15747	0.058289	0.043488	-0.080719	0.001984	-0.21454	0.031128	-0.028534	-0.19302	0.26932	-0.003204	0.003052
52.386	-0.029755	0.11292	-0.022583	-0.016327	0.02655	0.04364	0.10284	0.000305	0.000916	-0.015869	0.010071	0.011139	-0.0177	0.006104	0.011902	-0.00351	0.050354	0.005188	0.61142	0.041199	0.10269	0.021515	0.01236	-0.092316	-0.008087	-0.20233	0.000763	0.089569	-0.022278	0.33844	-0.001831	-0.002441
52.387	-0.016937	0.10696	-0.040588	-0.003204	0.013123	-0.002747	0.067596	0.007782	-0.010376	-0.044861	0.010986	0.006256	-0.02121	-0.018463	0.013733	-0.006104	0.012817	0.038452	0.19409	0.22751	-0.5455	0.097351	-0.002594	0.00061	0.014801	0.09079	-0.033417	0.00061	0.31326	0.27008	-0.001984	-0.010681
52.388	-0.006104	0.078278	0.00061	0.003052	0.019073	-0.054169	0.041504	0.005798	0.014343	-0.015564	0.013733	-0.007019	-0.014496	-0.025024	0.014496	-0.005188	-0.02655	0.065155	-0.33646	0.19898	-0.33981	-0.02121	-0.085297	0.037079	0.018768	-0.018616	-0.01358	-0.063019	0.52658	0.29343	-0.002441	-0.011444
52.389	-0.003204	0.14343	0.005951	0.013123	-0.006104	-0.091553	0.009613	0.002289	0.092468	-0.050964	0.007172	-0.005188	-0.013733	-0.034485	0.007019	-0.004578	-0.007782	0.13657	-0.54138	0.13443	0.26825	-0.21576	-0.085602	0.083771	0.024719	-0.059052	0.005341	-0.15976	0.30167	0.056763	-0.004578	-0.016327
52.39	-0.006256	0.10559	0.000305	0.00351	-0.020905	-0.12787	-0.038147	0.003357	0.11963	-0.11536	0.009003	-0.0177	-0.012512	-0.039215	0.007629	-0.011749	0.019531	0.18677	-0.45242	0.042725	0.17197	-0.29144	-0.10147	0.062866	0.008392	0.071259	0.009155	0	0.019073	-0.38895	-0.002441	-0.017548
52.391	-0.006256	0.10742	0.012207	0.018768	-0.064392	-0.078583	-0.036926	0.000458	0.11093	-0.17975	0.009003	-0.008087	-0.029449	0.00351	-0.005188	0.002747	0.014648	0.14496	-0.077667	0.021057	0.059204	-0.22476	-0.14145	0.042419	0.039368	0.05249	-0.025024	0.28122	0.088654	-0.75455	-0.002747	-0.016937
52.392	0.00824	0.069122	-0.025482	0.022583	-0.023041	-0.031281	-0.005951	0.004272	0.13733	0.052032	0.003815	-0.006714	-0.018768	0.020447	-0.016022	-0.010223	-0.00885	0.14572	0.40726	0.007935	-0.24262	-0.001678	-0.092773	-0.056152	0.016479	0.17136	-0.032501	0.028381	-0.001526	-0.66696	-0.002289	-0.019379
52.393	-0.00473	0.072937	-0.037537	0.021515	-0.10407	0.072632	0.020447	0.015411	0.096436	0.24735	-0.001221	-0.003204	-0.014343	0.03479	-0.022888	0.010986	-0.02121	0.10971	0.79895	-0.050812	-0.4422	0.2095	-0.11719	-0.02243	0.015869	0.16785	-0.029297	-0.091553	-0.30655	-0.88409	-0.001678	-0.009918
52.394	-0.029755	0.10635	0.026245	-0.005493	-0.21637	0.13092	0.023956	0.018616	0.018005	-0.075989	0.003204	0.018463	-0.010681	0.058899	-0.018921	0.006409	-0.04364	0.11246	0.80017	-0.09903	-0.12131	0.30319	-0.12924	0.04837	0.023193	0.057983	0.013428	-0.094604	-0.39948	-0.90225	-0.007629	-0.003815
52.395	-0.028229	0.060272	0.022888	-0.004578	-0.20111	0.057068	-0.020447	0.017395	-0.1149	0.03418	0.00412	0.007935	-0.022125	0.085297	-0.026855	0.006409	-0.048676	0.068512	0.25574	-0.10834	0.23819	0.18066	-0.13794	0.036926	0.006104	0.032349	0.02533	0.00824	-0.22903	-0.39734	-0.003204	-0.00885
52.396	-0.005951	0.066376	-0.085449	-0.00412	-0.22476	-0.12604	-0.064545	0.006714	-0.24674	0.16892	0.008392	0.00351	-0.030823	0.16373	-0.024719	-0.000763	-0.056763	0.036316	-0.18509	-0.1416	0.20294	0.19073	-0.14038	0.039978	-0.001984	0.002899	0.046692	0.103	-0.20447	-0.11566	-0.001373	-0.01358
52.397	0.031128	0.073395	-0.067596	0.001068	-0.087738	-0.21057	-0.095825	0.003204	-0.25848	0.45639	0.012817	0.006256	-0.034943	0.20905	-0.022278	-0.002747	-0.041504	0.062714	0.042877	-0.23529	0.2562	0.27817	-0.16037	0.016785	-0.019836	0.018768	0.02655	0.081482	-0.21469	0.3096	-0.006866	-0.010071
52.398	0.041656	0.074768	0.013123	0.000458	0.11688	-0.18463	-0.06546	-0.021973	-0.16403	0.3244	0.010376	-0.001526	-0.041656	0.1413	-0.017395	-0.002136	-0.005493	0.13229	0.1947	-0.1593	0.13382	0.3212	-0.15427	-0.015259	-0.022888	0.037842	-0.007172	0.029602	0.021973	0.68802	0.001526	-0.006104
52.399	0.034943	0.014954	0.14282	-0.010986	0.16434	-0.12161	0.085602	-0.013428	-0.16937	0.077972	0.007935	0.004883	-0.034027	-0.003815	-0.003357	-0.01358	0.011597	0.10742	0.32883	0.012054	0.033112	0.20325	-0.16602	-0.050049	-0.011444	0.037689	0.01297	-0.023804	0.099487	0.53299	-0.000763	-0.012665
52.4	0.026398	0.007782	0.10452	-0.013275	0.14252	-0.068512	0.12817	-0.029144	-0.070038	-0.20004	0.002747	-0.00473	-0.037537	-0.10376	-0.002289	-0.014191	0.023193	-0.002441	0.076447	0.19531	-0.023499	0.080872	-0.17364	-0.07431	-0.005951	0.028381	0.041046	0.024719	0.069427	0.32074	-0.001068	-0.002594
52.401	0.018768	0.031128	0.012054	0.019989	0.048065	0.07782	0.10162	-0.007324	0.009308	-0.31464	0.000916	0.006866	-0.018005	-0.026093	-0.002594	-0.007477	0.002136	0.003815	0.13489	0.21606	0.059814	0.014343	-0.21469	-0.009918	-0.010681	-0.011902	0.019989	0.030518	0.034027	0.27222	-0.000305	0.007477
52.402	0.007782	0.033417	0.014954	0.02182	0.016327	0.14633	0.022278	0.006714	0.10315	-0.27359	0.007782	0.005951	-0.086365	-0.007019	-0.007629	0.000305	-0.007629	-0.012817	-0.041656	0.14008	0.19531	-0.010834	-0.29129	0.003204	0.002899	-0.020447	0.013123	-0.007172	0.079651	0.14252	-0.003662	-0.005798
52.403	0.005188	0.095367	0.000458	0.000458	-0.047607	0.10178	-0.053558	0.011902	0.11826	-0.17197	0.006256	-0.002441	-0.11169	0.034637	0.009766	0.006866	0.02594	-0.038757	-0.12344	0.002441	0.14893	0.22781	-0.25284	-0.05127	0.004425	-0.024872	0.074158	-0.002289	0.06073	0.16174	-0.001221	-0.002594
52.404	0.007782	0.12146	-0.045013	0.018616	-0.13001	0.054169	-0.079193	0.02121	0.14435	-0.12619	0.008545	-0.000916	-0.043335	0.075531	0.006714	0	0.004578	-0.050354	0.23453	-0.025635	0.042877	0.30868	-0.2327	-0.056152	-0.023193	-0.02121	0.13062	-0.023804	-0.050354	0.10346	-0.003052	-0.010834
52.405	0.030365	0.11643	-0.016022	0.010681	-0.067749	-0.022583	-0.000305	0.006256	0.22201	-0.11047	0.005035	-0.000153	-0.077362	0.066986	0.008392	-0.018921	-0.004272	-0.026398	0.090637	0.042725	-0.11429	0.2829	-0.21957	-0.019531	-0.037231	-0.015411	0.068207	0.000916	-0.07431	0.14648	0.000153	-0.018463
52.406	0.036163	0.13123	0.076447	0.013428	0.12222	-0.094604	0.052795	-0.016785	0.17242	-0.09613	0.025482	-0.01358	-0.074615	0.012665	-0.016022	-0.007935	-0.000458	-0.02594	-0.14206	0.081635	0.1416	0.39154	-0.20569	-0.017548	-0.002899	-0.013428	0.023041	-0.005951	-0.014954	0.14771	-0.001221	-0.026398
52.407	0.036621	0.13077	0.13382	0.013275	0.15625	-0.078888	0.066833	-0.012665	0.049133	-0.11566	0.024261	0.003815	-0.077972	0.05249	-0.020599	-0.00061	0.006561	-0.008087	-0.11765	0.094604	0.21545	0.46555	-0.24902	-0.002747	0.016479	-0.004272	-0.10605	-0.011444	0.15015	0.12222	-0.000916	-0.029297
52.408	0.03891	0.10284	0.084534	0.007019	0.10803	0.000763	0.064392	-0.005341	-0.073853	-0.084229	0.012207	-0.00473	0.01709	0.0383	-0.006714	-0.002747	-0.001831	-0.056763	-0.12985	0.068665	0.12634	0.24811	-0.21515	-0.010986	0.061951	0.00061	-0.13657	-0.015717	0.13397	0.092773	0.005341	-0.023499
52.409	0.044098	0.070648	0.039978	0.011292	0.11643	0.041046	0.060577	-0.012054	-0.009003	0.04425	-0.006104	0.005035	0.10315	0.050507	0.008087	-0.001526	0.024567	-0.03479	-0.16266	-0.019684	0.078583	0.14954	-0.23331	-0.013123	0.071259	0.003204	0.10483	-0.014801	0.32776	0.097504	0	-0.020752
